<?xml version="1.0" encoding="UTF-8" standalone="no"?>
<!-- Generator: Adobe Illustrator 15.0.2, SVG Export Plug-In . SVG Version: 6.00 Build 0)  -->

<svg
   xmlns:dc="http://purl.org/dc/elements/1.1/"
   xmlns:cc="http://creativecommons.org/ns#"
   xmlns:rdf="http://www.w3.org/1999/02/22-rdf-syntax-ns#"
   xmlns:svg="http://www.w3.org/2000/svg"
   xmlns="http://www.w3.org/2000/svg"
   xmlns:sodipodi="http://sodipodi.sourceforge.net/DTD/sodipodi-0.dtd"
   xmlns:inkscape="http://www.inkscape.org/namespaces/inkscape"
   version="1.1"
   id="Layer_1"
   x="0px"
   y="0px"
   width="1069.743"
   height="959.8645"
   viewBox="0 0 1069.743 959.8645"
   enable-background="new 0 0 1071.067 965.25"
   xml:space="preserve"
   inkscape:version="0.48.2 r9819"
   sodipodi:docname="Mifal_HaPayis_logo.svg"><metadata
   id="metadata11"><rdf:RDF><cc:Work
       rdf:about=""><dc:format>image/svg+xml</dc:format><dc:type
         rdf:resource="http://purl.org/dc/dcmitype/StillImage" /></cc:Work></rdf:RDF></metadata><defs
   id="defs9" /><sodipodi:namedview
   pagecolor="#ffffff"
   bordercolor="#666666"
   borderopacity="1"
   objecttolerance="10"
   gridtolerance="10"
   guidetolerance="10"
   inkscape:pageopacity="0"
   inkscape:pageshadow="2"
   inkscape:window-width="1280"
   inkscape:window-height="962"
   id="namedview7"
   showgrid="false"
   fit-margin-top="0"
   fit-margin-left="0"
   fit-margin-right="0"
   fit-margin-bottom="0"
   inkscape:zoom="0.3457699"
   inkscape:cx="847.84627"
   inkscape:cy="378.60309"
   inkscape:window-x="-8"
   inkscape:window-y="-8"
   inkscape:window-maximized="1"
   inkscape:current-layer="Layer_1" />


<g
   transform="matrix(1.5930301,0,0,-1.5930301,-542.18197,1409.0004)"
   id="g5933"><path
     d="m 420.64095,295.75581 -6.6192,47.85388 -14.71039,0 6.98957,-47.85388 14.34002,0 z m 29.55374,62.37434 27.36949,0 4.81483,-46.32491 -26.70473,0 -5.47959,46.32491 z m 117.09433,-24.59646 26.45781,0 2.21273,-51.36766 -25.72656,0 -2.94398,51.36766 z m 141.88072,-20.21848 0.55081,29.90512 -29.43028,0 0.12346,36.72374 27.73037,0 -0.41786,-21.81392 29.64871,0 -1.57646,-47.82539 -16.07791,-28.13873 -28.66105,0 18.11021,31.14918 z M 393.97421,282.35596 c -6.68568,0 -12.944,5.09973 -13.96015,11.44353 l -10.20895,64.33066 56.93272,-0.0665 c 6.97058,0 13.30488,-5.49859 14.14059,-12.26024 l 6.46726,-52.00394 c 0.77872,-6.3438 -4.00761,-11.44353 -10.70279,-11.44353 l -42.66868,0 z m 165.05268,11.14913 c 0.39886,-6.3343 -4.70087,-11.44352 -11.39604,-11.44352 l -51.92797,0.10446 -1.37702,13.96015 38.07228,0 -3.67523,47.48351 -11.88037,0 2.64958,-31.80445 -26.70473,0 -4.54892,46.32491 54.16919,-0.095 c 6.97058,0 12.99149,-5.77399 13.41884,-12.52615 l 3.20039,-52.00394 z m 61.48164,64.53009 c 6.98008,0 12.74458,-5.50809 12.89652,-12.26024 l 1.43401,-63.60891 -26.27738,0 -2.21273,61.0543 -40.19004,0 -0.84521,14.90982 55.19483,-0.095 z m 122.90632,-61.909 11.95634,0 -9.44921,62.00397 29.08839,0 5.1852,-62.00397 8.46156,0 3.84617,62.00397 27.37899,0 -5.20419,-64.74852 c -0.48433,-6.34379 -6.30581,-11.44352 -13.00099,-11.44352 l -58.79408,0.22792 0.53182,13.96015 z m 146.33467,-2.62109 c -0.74074,-6.3343 -6.77114,-11.45302 -13.45682,-11.45302 l -51.89948,0.11396 1.13961,13.96015 38.07227,0 4.89081,47.48351 -11.88988,0 -3.07693,-31.80445 -26.71422,0 3.80818,46.32491 54.06472,-0.0665 c 6.97058,0 11.98484,-5.49859 11.18712,-12.26024 l -6.12538,-52.29834 z m 43.98873,2.62109 10.67429,0 6.96108,47.48351 -12.82055,0 -16.99909,-61.44366 -27.18906,0 19.42076,61.0543 -10.00003,0 1.81387,14.90982 62.91565,-0.0665 c 6.97058,0 11.73792,-5.49859 10.6553,-12.26024 l -10.52235,-63.6374 -36.86619,0 1.95632,13.96015 z"
     style="fill:#ffffff;fill-opacity:1;fill-rule:nonzero;stroke:none"
     id="path2484"
     inkscape:connector-curvature="0" /><path
     d="m 364.96179,884.47819 181.79536,0 C 463.00574,838.80855 406.20597,750.16634 406.20597,648.29522 c 0,-102.15602 57.12266,-191.01666 141.25394,-236.57234 l -184.34998,0 c -14.92881,74.95747 -22.76359,152.47905 -22.76359,231.82399 0,82.55483 8.48055,163.14384 24.61545,240.93132"
     style="fill:#f58220;fill-opacity:1;fill-rule:nonzero;stroke:none"
     id="path2506"
     inkscape:connector-curvature="0" /><path
     d="m 805.45015,884.47819 181.79536,0 c 16.12539,-77.78748 24.61549,-158.37649 24.61549,-240.93132 0,-79.34494 -7.8348,-156.86652 -22.77313,-231.82399 l -184.34997,0 c 84.13128,45.55568 141.25394,134.41632 141.25394,236.57234 0,101.87112 -56.79028,190.51333 -140.54169,236.18297"
     style="fill:#f58220;fill-opacity:1;fill-rule:nonzero;stroke:none"
     id="path2510"
     inkscape:connector-curvature="0" /><path
     d="m 625.45062,815.72492 c -33.87473,6.57172 -67.36011,3.34284 -97.58811,-7.64484 l -1.50997,-0.51283 c -13.00099,-4.70086 -23.85572,-10.94969 -28.43313,-13.56129 -4.76734,-2.71605 -8.01521,-5.07124 -9.81959,-3.22888 -1.7189,1.76639 3.35234,7.47391 3.35234,7.47391 8.54703,10.54134 18.11971,19.62018 22.65913,23.70377 53.53291,48.73707 128.7088,72.47882 205.32819,57.61649 C 848.01532,854.67089 931.97566,730.57749 906.98034,602.4195 881.99452,474.26151 757.51175,390.56708 628.94541,415.47693 c -41.51958,8.04371 -75.91664,26.42932 -105.06201,51.95646 -7.65435,7.35994 -14.38751,13.15293 -20.55087,21.82342 -28.33816,32.94405 -43.191,81.13981 -34.39705,127.63567 15.02378,79.40192 87.5406,131.26341 167.21792,115.83127 61.58611,-11.93736 106.65746,-60.60795 116.78094,-118.76575 -35.36571,2.55461 -70.65546,5.91644 -105.87872,9.91455 27.58791,-25.0428 55.47973,-49.74372 83.7799,-73.9888 -16.34382,-28.45212 -34.02668,-56.11601 -53.60888,-82.46936 32.38375,13.98864 63.60891,30.38945 93.55201,49.00298 14.52995,-11.88037 29.21185,-23.58031 44.20714,-34.87189 4.36849,23.37139 6.54323,47.06566 7.37894,70.80741 22.64963,17.66387 44.09319,36.75224 63.72287,57.69246 -21.52902,-0.65527 -43.05805,-0.41785 -64.57757,0.25642 -2.25072,36.5528 -7.01807,72.84919 -13.93166,108.8132 -9.98104,-28.73702 -21.29161,-56.96121 -33.77977,-84.69158 1.01614,86.57193 -60.04765,164.18847 -148.34798,181.30153"
     style="fill:#ffffff;fill-opacity:1;fill-rule:nonzero;stroke:none"
     id="path2514"
     inkscape:connector-curvature="0" /></g></svg>